<svg width="421" height="407" viewBox="0 0 421 407" fill="none" xmlns="http://www.w3.org/2000/svg">
<g id="code" clip-path="url(#clip0)">
<g id="sec-right-screen">
<path id="Vector" opacity="0.52" d="M275.56 131.01L400.84 131.01C407.224 131.01 412.4 125.834 412.4 119.45V51.56C412.4 45.1756 407.224 40 400.84 40L275.56 40C269.176 40 264 45.1756 264 51.56V119.45C264 125.834 269.176 131.01 275.56 131.01Z" fill="#68A9FD"/>
<g id="code_2" opacity="0.52">
<path id="Vector_2" opacity="0.52" d="M308.202 56.46H279.47V58.226H308.202V56.46Z" fill="white"/>
<path id="Vector_3" opacity="0.52" d="M297.004 59.8799H279.47V61.5338H297.004V59.8799Z" fill="white"/>
<path id="Vector_4" opacity="0.52" d="M359.262 59.8799H304.078V61.5479H359.262V59.8799Z" fill="white"/>
<path id="Vector_5" opacity="0.52" d="M395.47 59.8799H364.408V61.5479H395.47V59.8799Z" fill="white"/>
<path id="Vector_6" opacity="0.52" d="M312.694 63.2859H288.589V65.0239H312.694V63.2859Z" fill="white"/>
<path id="Vector_7" opacity="0.52" d="M325.065 66.7058H296.334V68.4718H325.065V66.7058Z" fill="white"/>
<path id="Vector_8" opacity="0.52" d="M350.998 66.7058H326.926V68.6681H350.998V66.7058Z" fill="white"/>
<path id="Vector_9" opacity="0.52" d="M318.461 70.1118H296.283V71.7657H318.461V70.1118Z" fill="white"/>
<path id="Vector_10" opacity="0.52" d="M366.386 70.1118H320.606V71.9479H366.386V70.1118Z" fill="white"/>
<path id="Vector_11" opacity="0.52" d="M308.202 74.7231H279.47V76.4891H308.202V74.7231Z" fill="white"/>
<path id="Vector_12" opacity="0.52" d="M297.004 78.129H279.47V79.7829H297.004V78.129Z" fill="white"/>
<path id="Vector_13" opacity="0.52" d="M359.262 78.129H304.078V79.7969H359.262V78.129Z" fill="white"/>
<path id="Vector_14" opacity="0.52" d="M395.47 78.129H364.408V79.7969H395.47V78.129Z" fill="white"/>
<path id="Vector_15" opacity="0.52" d="M312.694 81.5349H288.589V83.2729H312.694V81.5349Z" fill="white"/>
<path id="Vector_16" opacity="0.52" d="M325.065 84.9549H296.334V86.7209H325.065V84.9549Z" fill="white"/>
<path id="Vector_17" opacity="0.52" d="M350.998 84.9549H326.926V86.9171H350.998V84.9549Z" fill="white"/>
<path id="Vector_18" opacity="0.52" d="M318.461 88.3608H296.283V90.0147H318.461V88.3608Z" fill="white"/>
<path id="Vector_19" opacity="0.52" d="M366.386 88.3608H320.606V90.1969H366.386V88.3608Z" fill="white"/>
<path id="Vector_20" opacity="0.52" d="M308.202 92.9721H279.47V94.7382H308.202V92.9721Z" fill="white"/>
<path id="Vector_21" opacity="0.52" d="M297.004 96.3921H279.47V98.046H297.004V96.3921Z" fill="white"/>
<path id="Vector_22" opacity="0.52" d="M359.262 96.3921H304.078V98.06H359.262V96.3921Z" fill="white"/>
<path id="Vector_23" opacity="0.52" d="M395.47 96.3921H364.408V98.06H395.47V96.3921Z" fill="white"/>
<path id="Vector_24" opacity="0.52" d="M312.694 99.798H288.589V101.536H312.694V99.798Z" fill="white"/>
<path id="Vector_25" opacity="0.52" d="M325.065 103.204H296.334V104.97H325.065V103.204Z" fill="white"/>
<path id="Vector_26" opacity="0.52" d="M350.998 103.204H326.926V105.166H350.998V103.204Z" fill="white"/>
<path id="Vector_27" opacity="0.52" d="M318.461 106.624H296.283V108.278H318.461V106.624Z" fill="white"/>
<path id="Vector_28" opacity="0.52" d="M366.386 106.624H320.606V108.46H366.386V106.624Z" fill="white"/>
</g>
</g>
<g id="sec-left-screen">
<path id="Vector_29" opacity="0.52" d="M61.04 186.95L170.3 186.95C177.005 186.95 182.44 181.515 182.44 174.81L182.44 51.85C182.44 45.1452 177.005 39.71 170.3 39.71L61.04 39.71C54.3353 39.71 48.9 45.1452 48.9 51.85L48.9 174.81C48.9 181.515 54.3353 186.95 61.04 186.95Z" fill="#68A9FD"/>
<path id="Vector_30" d="M61.04 186.95L170.3 186.95C177.005 186.95 182.44 181.515 182.44 174.81L182.44 51.85C182.44 45.1452 177.005 39.71 170.3 39.71L61.04 39.71C54.3353 39.71 48.9 45.1452 48.9 51.85L48.9 174.81C48.9 181.515 54.3353 186.95 61.04 186.95Z" fill="url(#paint0_linear)"/>
<path id="Vector_31" d="M69.74 81L94.67 68.16V71.88L73.67 82.35V82.47L94.67 92.99V96.71L69.74 83.87V81Z" fill="#68A9FD"/>
<path id="Vector_32" d="M98.12 98.91L113.12 59.91H116.77L101.77 98.91H98.12Z" fill="#68A9FD"/>
<path id="Vector_33" d="M145.12 84.06L120.18 96.85V93.04L141.34 82.52V82.35L120.18 71.83V68.16L145.12 80.95V84.06Z" fill="#68A9FD"/>
</g>
<g id="main-screen">
<path id="Vector_34" d="M151.52 241.44L299.15 241.44C306.087 241.44 311.71 235.817 311.71 228.88V126.47C311.71 119.533 306.087 113.91 299.15 113.91L151.52 113.91C144.583 113.91 138.96 119.533 138.96 126.47V228.88C138.96 235.817 144.583 241.44 151.52 241.44Z" fill="black" fill-opacity="0.47"/>
<g id="main-code">
<path id="Vector_35" d="M194.65 133.88H160.2V136.41H194.65V133.88Z" fill="white"/>
<path id="Vector_36" d="M181.23 138.77H160.2V141.14H181.23V138.77Z" fill="white"/>
<path id="Vector_37" d="M255.88 138.77H189.71V141.16H255.88V138.77Z" fill="white"/>
<path id="Vector_38" d="M299.31 138.77H262.07V141.16H299.31V138.77Z" fill="white"/>
<path id="Vector_39" d="M200.05 143.68H171.14V146.18H200.05V143.68Z" fill="white"/>
<path id="Vector_40" d="M214.87 148.56H180.42V151.09H214.87V148.56Z" fill="white"/>
<path id="Vector_41" d="M246 148.56H217.12V151.37H246V148.56Z" fill="white"/>
<path id="Vector_42" d="M206.97 153.45H180.37V155.82H206.97V153.45Z" fill="white"/>
<path id="Vector_43" d="M264.42 153.45H209.52V156.08H264.42V153.45Z" fill="white"/>
<path id="Vector_44" d="M194.65 160.07H160.2V162.6H194.65V160.07Z" fill="white"/>
<path id="Vector_45" d="M181.23 164.96H160.2V167.33H181.23V164.96Z" fill="white"/>
<path id="Vector_46" d="M255.88 164.96H189.71V167.35H255.88V164.96Z" fill="white"/>
<path id="Vector_47" d="M299.31 164.96H262.07V167.35H299.31V164.96Z" fill="white"/>
<path id="Vector_48" d="M200.05 169.85H171.14V172.35H200.05V169.85Z" fill="white"/>
<path id="Vector_49" d="M214.87 174.75H180.42V177.28H214.87V174.75Z" fill="white"/>
<path id="Vector_50" d="M246 174.75H217.12V177.56H246V174.75Z" fill="white"/>
<path id="Vector_51" d="M206.97 179.64H180.37V182.01H206.97V179.64Z" fill="white"/>
<path id="Vector_52" d="M264.42 179.64H209.52V182.27H264.42V179.64Z" fill="white"/>
<path id="Vector_53" d="M194.65 186.25H160.2V188.78H194.65V186.25Z" fill="white"/>
<path id="Vector_54" d="M181.23 191.14H160.2V193.51H181.23V191.14Z" fill="white"/>
<path id="Vector_55" d="M255.88 191.14H189.71V193.53H255.88V191.14Z" fill="white"/>
<path id="Vector_56" d="M299.31 191.14H262.07V193.53H299.31V191.14Z" fill="white"/>
<path id="Vector_57" d="M200.05 196.03H171.14V198.53H200.05V196.03Z" fill="white"/>
<path id="Vector_58" d="M214.87 200.92H180.42V203.45H214.87V200.92Z" fill="white"/>
<path id="Vector_59" d="M246 200.92H217.12V203.73H246V200.92Z" fill="white"/>
<path id="Vector_60" d="M206.97 205.82H180.37V208.19H206.97V205.82Z" fill="white"/>
<path id="Vector_61" d="M264.42 205.82H209.52V208.45H264.42V205.82Z" fill="white"/>
</g>
</g>
<path id="Vector_62" opacity="0.24" d="M403.05 266.25C390.98 283.56 374.05 296.88 360.66 313.25C341 337.25 328.28 368.41 301.66 384.42C289.07 391.98 274.5 395.36 260.22 398.64C237.27 403.92 213.49 409.2 190.36 404.74C172.63 401.33 156.54 392.39 140.78 383.57L128.31 376.57C125.56 375.01 122.78 373.48 120 371.92L111.9 367.38C88.12 353.98 64.49 340 44.45 321.53C22.12 301.03 4.36999 274.05 0.679994 243.92C-3.60001 209.1 12.78 172.53 41.6 152.52C57.41 141.52 76.26 135.4 91.79 123.99C116.3 105.99 129.79 77.2 146.62 51.91C177.81 5.02 237.79 -17.42 288.3 15.91C307.93 28.85 322.78 48.07 333.69 68.91C342.91 86.48 349.69 105.54 361.95 121.14C375.95 138.96 396.33 151.3 408.58 170.37C426.93 198.91 422.49 238.39 403.05 266.25Z" fill="url(#paint1_linear)" fill-opacity="0.82"/>
<path id="Vector_63" opacity="0.42" d="M143.98 372.95C142.51 374.56 144.92 376.8 146.98 377.58C160.421 382.723 174.689 385.367 189.08 385.38L186.63 389.55C209.187 395.814 233.008 395.938 255.63 389.91L252.15 384.51L272.36 383.51C275.57 383.36 286.83 384.68 288.96 381.83C295.09 373.62 270.14 373.3 267.46 373.19C240.84 372.077 214.203 371.647 187.55 371.9C180.283 371.967 173.017 372.083 165.75 372.25C162.31 372.37 146.12 370.67 143.98 372.95Z" fill="#636363" fill-opacity="0.82"/>
<path id="Vector_64" d="M253.275 300.961C252.735 311.627 252.091 322.314 251.345 333.021C251.123 338.432 250.42 343.814 249.245 349.101C248.456 352.244 247.343 355.297 245.925 358.211C245.315 359.461 244.445 360.821 243.075 360.961C241.345 361.141 240.145 359.291 239.525 357.661C236.435 349.661 236.435 340.901 236.235 332.341C236.121 327.914 235.945 323.484 235.705 319.051C235.415 313.701 234.835 307.911 231.215 303.951C230.115 302.751 228.775 301.771 227.695 300.541C223.285 295.541 224.605 287.111 229.355 282.401C233.045 278.751 243.755 273.931 248.925 276.951C255.065 280.531 253.565 295.191 253.275 300.961Z" fill="#0E0572"/>
<path id="Vector_65" d="M226.64 280.65C228.186 283.1 228.911 285.98 228.71 288.87C228.46 297.56 223.3 305.25 220.71 313.56C216.83 326.11 218.99 339.56 219.38 352.73C219.56 354.544 219.335 356.374 218.72 358.09C218.393 358.94 217.816 359.671 217.064 360.186C216.312 360.7 215.421 360.974 214.51 360.97C213.19 360.725 212.002 360.015 211.16 358.97C204.8 352.17 205.01 341.8 203.96 332.56C202.78 322.27 199.59 312.33 196.87 302.34C195.64 297.83 194.49 293.21 194.78 288.55C195.07 283.89 197.03 279.1 200.88 276.46C207.87 271.68 221.65 273.5 226.64 280.65Z" fill="#0E0572"/>
<path id="Vector_66" opacity="0.52" d="M107.47 266.18H333.16V255.36L107.47 255.36V266.18Z" fill="#4A2800"/>
<path id="Vector_67" d="M266.91 248.35C267.62 250.35 268.29 252.45 267.85 254.51C267.691 255.223 267.403 255.901 267 256.51C265 259.61 260.26 260.09 257 258.23C253.74 256.37 251.9 252.81 251 249.23C250.645 248.031 250.526 246.774 250.65 245.53C250.94 243.36 252.38 241.53 253.88 239.93C255.88 237.85 259.55 235.13 262.24 237.63C264.66 239.87 265.84 245.36 266.91 248.35Z" fill="#E1D1BF"/>
<path id="Vector_68" d="M182.598 251.325C182.16 252.151 181.956 253.081 182.008 254.015C182.129 254.615 182.367 255.186 182.708 255.695C183.549 257.205 184.673 258.539 186.018 259.625C187.375 260.712 189.094 261.245 190.828 261.115C193.388 260.835 195.418 258.805 196.778 256.615C198.191 254.534 198.935 252.07 198.908 249.555C198.83 248.23 198.459 246.938 197.823 245.773C197.187 244.607 196.3 243.597 195.228 242.815C193.298 241.415 189.278 240.145 187.098 241.745C184.918 243.345 183.688 248.745 182.598 251.325Z" fill="#E1D1BF"/>
<path id="Vector_69" d="M244.18 174.3C244.535 174.197 244.909 174.177 245.273 174.241C245.637 174.305 245.981 174.452 246.28 174.67C246.697 175.145 246.94 175.748 246.97 176.38C247.225 177.654 247.276 178.96 247.12 180.25C246.953 181.532 246.323 182.709 245.35 183.56C244.592 184.118 243.738 184.532 242.83 184.78C242.148 185.089 241.373 185.118 240.67 184.86C240.364 184.651 240.108 184.377 239.921 184.057C239.734 183.737 239.621 183.379 239.59 183.01C238.8 179.14 240.01 175.06 244.18 174.3Z" fill="#E1D1BF"/>
<path id="Vector_70" d="M207.77 172.96C207.373 172.86 206.957 172.86 206.56 172.96C206.126 173.164 205.76 173.489 205.505 173.894C205.25 174.3 205.116 174.771 205.12 175.25C205.055 176.191 205.116 177.135 205.3 178.06C205.473 179.608 206.107 181.068 207.12 182.25C207.63 182.819 208.317 183.199 209.07 183.33C209.823 183.461 210.598 183.334 211.27 182.97C215.52 180.03 211.52 173.78 207.77 172.96Z" fill="#E1D1BF"/>
<path id="Vector_71" d="M234.69 200.91C234.887 201.816 234.941 202.747 234.85 203.67C234.48 206.23 231.93 208.02 229.37 208.34C226.81 208.66 224.25 207.8 221.86 206.85C221.126 206.603 220.447 206.216 219.86 205.71C219.274 205.098 218.875 204.331 218.71 203.5C218.423 202.059 218.336 200.585 218.45 199.12L218.61 193.96C218.561 192.951 218.76 191.945 219.19 191.03C220.19 189.32 222.48 189.03 224.47 188.9C227.08 188.79 231.01 188.9 232.73 191.28C234.45 193.66 234.25 198.14 234.69 200.91Z" fill="#E1D1BF"/>
<path id="Vector_72" d="M242.73 158.79C243.507 160.967 243.781 163.292 243.53 165.59C243.307 170.896 242.753 176.183 241.87 181.42C241.21 185.35 240.17 189.57 237.06 192.05C236.171 192.648 235.331 193.317 234.55 194.05C234.01 194.63 233.63 195.35 233.13 195.98C230.6 199.15 225.5 199.15 222.02 197.04C218.54 194.93 216.31 191.31 214.27 187.79C212.02 183.91 209.79 179.85 209.39 175.38C209.06 171.84 209.89 168.11 208.54 164.82C207.54 162.4 205.47 160.46 205.01 157.89C204.832 156.158 205.044 154.409 205.63 152.77C206.44 149.86 207.68 146.5 210.63 145.71C212.78 145.13 215 146.23 217.23 146.3C220.07 146.4 222.96 144.81 225.66 145.71C229.13 146.87 230.66 150.87 234.12 152.17C237.58 153.47 241.12 155.11 242.73 158.79Z" fill="black"/>
<path id="Vector_73" d="M254.21 210.04C244.07 201.63 229.44 201.84 216.39 203.62C211 204.35 205.51 205.32 200.77 208C192.83 212.5 188.13 221.2 185.66 230C184.35 234.67 183.66 240 186.28 244.1C189.03 248.34 194.51 249.8 199.53 250.36C200.299 250.377 201.05 250.594 201.71 250.99C202.401 251.631 202.835 252.502 202.93 253.44C204.33 260.74 201.49 268.94 205.24 275.35C208.87 281.54 216.98 283.17 224.13 283.72C233.38 284.43 243.41 284.17 250.92 278.72C252.166 277.883 253.225 276.797 254.03 275.53C255.27 273.41 255.34 270.83 255.37 268.38C255.45 263.04 253.5 252.3 256.1 247.59C258.28 243.67 264.49 243.65 266.67 239.17C270.8 230.65 260.42 215.18 254.21 210.04Z" fill="#611C1C"/>
<path id="Vector_74" d="M217.51 278.09L217.58 289.46C217.63 289.898 217.546 290.34 217.34 290.73C217.007 291.141 216.526 291.403 216 291.46C212.92 292.18 209.7 291.77 206.54 291.78C203.38 291.79 199.97 292.35 197.7 294.56C201.15 297.11 205.6 297.81 209.87 298.31C216.19 299.063 222.523 299.563 228.87 299.81C232.984 300.113 237.12 299.898 241.18 299.17C244.75 298.453 248.096 296.893 250.94 294.62C248.15 291.62 243.53 291.68 239.45 291.68C235.48 291.679 231.514 291.452 227.57 291C227.124 291.006 226.682 290.92 226.271 290.748C225.86 290.576 225.489 290.322 225.18 290C224.848 289.408 224.714 288.724 224.8 288.05C224.876 285.525 225.194 283.014 225.75 280.55C225.868 279.737 226.196 278.969 226.7 278.32C227.591 277.559 228.71 277.116 229.88 277.06C234.51 276.288 239.05 275.049 243.43 273.36C245.234 272.762 246.912 271.837 248.38 270.63C252.32 267.05 252.15 260.88 251.24 255.63C243.989 259.84 235.801 262.17 227.42 262.41C221.69 262.57 209.26 260.11 205.23 265.63C203.23 268.42 205.36 271 207.57 272.93C208.53 273.75 217.51 277.98 217.51 278.09Z" fill="url(#paint2_linear)"/>
<path id="Vector_75" d="M238.04 226.42H214.24C204.967 226.42 197.45 233.937 197.45 243.21V250.3C197.45 259.573 204.967 267.09 214.24 267.09H238.04C247.313 267.09 254.83 259.573 254.83 250.3V243.21C254.83 233.937 247.313 226.42 238.04 226.42Z" fill="#68A9FD"/>
<path id="Vector_76" d="M225.18 311.01H225.19C227.349 311.01 229.1 309.259 229.1 307.1V250.28C229.1 248.121 227.349 246.37 225.19 246.37H225.18C223.021 246.37 221.27 248.121 221.27 250.28V307.1C221.27 309.259 223.021 311.01 225.18 311.01Z" fill="url(#paint3_radial)"/>
<path id="Vector_77" d="M245.305 356.203C247.305 357.853 247.805 360.713 248.685 363.203C249.905 366.603 252.165 369.693 252.465 373.293C252.596 374.361 252.419 375.443 251.955 376.413C251.508 377.164 250.872 377.784 250.11 378.212C249.349 378.64 248.489 378.861 247.615 378.853C245.865 378.817 244.159 378.298 242.685 377.353C240.079 375.801 237.927 373.59 236.445 370.943C235.689 369.648 235.206 368.212 235.025 366.723C234.615 362.213 239.295 351.403 245.305 356.203Z" fill="#5B4700"/>
<path id="Vector_78" d="M249.035 375.283C249.176 375.546 249.25 375.84 249.25 376.138C249.25 376.437 249.176 376.73 249.035 376.993C248.804 377.241 248.499 377.406 248.165 377.463C246.787 377.73 245.36 377.469 244.165 376.733C242.986 376.01 241.904 375.14 240.945 374.143C239.461 372.841 238.147 371.355 237.035 369.723C235.921 368.065 235.468 366.049 235.765 364.073C236.825 358.653 241.605 363.513 243.365 365.513C245.877 368.367 247.804 371.686 249.035 375.283Z" fill="black"/>
<path id="Vector_79" d="M210.12 356.16C208.12 357.81 207.62 360.67 206.74 363.16C205.52 366.56 203.26 369.66 202.96 373.25C202.829 374.321 203.006 375.406 203.47 376.38C203.918 377.129 204.555 377.747 205.316 378.173C206.078 378.599 206.937 378.819 207.81 378.81C209.561 378.779 211.268 378.259 212.74 377.31C215.349 375.761 217.501 373.549 218.98 370.9C219.738 369.606 220.221 368.169 220.4 366.68C220.8 362.17 216.12 351.32 210.12 356.16Z" fill="#5B4700"/>
<path id="Vector_80" d="M205.88 375.52C205.742 375.784 205.669 376.077 205.669 376.375C205.669 376.673 205.742 376.966 205.88 377.23C206.115 377.478 206.424 377.642 206.76 377.7C208.138 377.956 209.561 377.696 210.76 376.97C211.933 376.243 213.011 375.373 213.97 374.38C215.46 373.076 216.777 371.588 217.89 369.95C219.002 368.294 219.455 366.283 219.16 364.31C218.09 358.88 213.32 363.74 211.55 365.75C209.04 368.605 207.114 371.924 205.88 375.52Z" fill="black"/>
<path id="Vector_81" d="M231.55 332.25C229.939 333.015 228.16 333.359 226.38 333.25C224.41 333.363 222.433 333.219 220.5 332.82C219.848 332.691 219.238 332.406 218.72 331.99C218.288 331.594 217.947 331.11 217.72 330.57C216.09 326.97 214.25 319.51 216.78 316.48C219.67 313 231.14 312.39 234.78 316.04C238.31 319.46 235.75 329.78 231.55 332.25Z" fill="#68A9FD"/>
<path id="Vector_82" d="M231.55 332.25C229.939 333.015 228.16 333.359 226.38 333.25C224.41 333.363 222.433 333.219 220.5 332.82C219.848 332.691 219.238 332.406 218.72 331.99C218.288 331.594 217.947 331.11 217.72 330.57C216.09 326.97 214.25 319.51 216.78 316.48C219.67 313 231.14 312.39 234.78 316.04C238.31 319.46 235.75 329.78 231.55 332.25Z" fill="url(#paint4_radial)"/>
<path id="Vector_83" d="M223.59 366.08H228.81V332.4H223.59V366.08Z" fill="url(#paint5_radial)"/>
<path id="Vector_84" d="M246.84 368.88C248 369.83 249.13 371.02 250.62 371.2C251.7 371.32 252.78 370.86 253.88 370.86C255.328 370.962 256.692 371.575 257.73 372.59C258.71 373.366 259.446 374.407 259.85 375.59C260.66 378.35 258.2 381.37 255.33 381.65C252.46 381.93 249.7 379.97 248.44 377.39C248.169 376.683 247.813 376.012 247.38 375.39C246.965 374.944 246.482 374.566 245.95 374.27C241.703 371.636 237.019 369.784 232.12 368.8C231.27 368.63 230.23 368.55 229.69 369.22C229.428 369.604 229.286 370.056 229.28 370.52C229.059 372.512 228.968 374.516 229.01 376.52C228.984 376.905 229.056 377.291 229.22 377.64C229.48 378 229.797 378.314 230.16 378.57C230.738 379.185 231.101 379.97 231.195 380.808C231.289 381.647 231.108 382.493 230.68 383.22C229.775 384.654 228.389 385.717 226.77 386.22C224.85 386.93 222.43 387.05 221 385.58C220.495 385.012 220.158 384.315 220.025 383.566C219.893 382.818 219.971 382.047 220.25 381.34C220.826 379.928 221.891 378.771 223.25 378.08C223.722 377.901 224.132 377.588 224.43 377.18C224.595 376.803 224.657 376.389 224.61 375.98L224.47 371.52C224.512 371.18 224.473 370.834 224.354 370.512C224.236 370.191 224.043 369.902 223.79 369.67C223.39 369.462 222.932 369.395 222.49 369.48C215.14 370.047 208.101 372.686 202.19 377.09C203.27 377.93 203.08 379.75 202.11 380.71C201.042 381.591 199.669 382.015 198.29 381.89C196.774 381.906 195.288 381.471 194.02 380.64C193.385 380.225 192.868 379.654 192.518 378.982C192.167 378.309 191.996 377.558 192.02 376.8C192.122 376.032 192.422 375.304 192.89 374.687C193.358 374.07 193.978 373.585 194.69 373.28C196.121 372.681 197.694 372.511 199.22 372.79C200.005 372.957 200.808 373.021 201.61 372.98C202.509 372.793 203.364 372.437 204.13 371.93C211.056 368.019 218.737 365.633 226.66 364.93C233.3 364.34 241.47 364.48 246.84 368.88Z" fill="url(#paint6_radial)"/>
<path id="Vector_85" d="M194.98 319.9H253.35C260.281 319.9 265.9 314.281 265.9 307.35V306.56C265.9 299.629 260.281 294.01 253.35 294.01H194.98C188.049 294.01 182.43 299.629 182.43 306.56V307.35C182.43 314.281 188.049 319.9 194.98 319.9Z" fill="#68A9FD"/>
<path id="Vector_86" d="M194.98 319.9H253.35C260.281 319.9 265.9 314.281 265.9 307.35V306.56C265.9 299.629 260.281 294.01 253.35 294.01H194.98C188.049 294.01 182.43 299.629 182.43 306.56V307.35C182.43 314.281 188.049 319.9 194.98 319.9Z" fill="url(#paint7_linear)"/>
<path id="Vector_87" d="M234.511 250.391C232.794 251.152 230.986 251.69 229.131 251.991C224.131 252.911 218.291 252.711 214.691 249.081C214.127 248.529 213.67 247.878 213.341 247.161C212.341 244.731 213.651 241.801 215.801 240.261C217.951 238.721 220.681 238.311 223.311 238.181C226.531 238.021 232.651 237.471 235.461 239.641C238.821 242.241 238.301 248.611 234.511 250.391Z" fill="url(#paint8_radial)"/>
<g id="plant">
<path id="Vector_88" d="M112.42 327.1C109.11 320.56 105.06 313.77 105.84 306.48C106.31 302.07 108.54 298.07 110.72 294.2L120.54 276.79C123.54 280.69 128.48 283.06 130.46 287.56C133.64 294.79 127.46 302.79 127.79 310.68C128.01 316.75 132.04 322.28 131.79 328.35C131.63 332.76 124.65 347.21 119 346.66C116.01 346.37 114.3 330.8 112.42 327.1Z" fill="url(#paint9_linear)"/>
<path id="Vector_89" d="M146.23 324.31C148.46 324.31 151.23 324.76 151.87 326.91C152.39 328.79 150.74 330.52 149.17 331.68C143.7 335.68 136.85 338.75 134.17 344.98C129.72 355.32 117.12 348.69 123.64 339.74C126.34 336.04 128.64 331.07 132 327.98C135.86 324.41 141.26 324.25 146.23 324.31Z" fill="url(#paint10_linear)"/>
<path id="Vector_90" d="M113.56 329.09C111.05 326.23 107.32 324.82 103.76 323.5C102.07 322.88 99.9 322.37 98.76 323.73C98.3842 324.261 98.1823 324.895 98.1823 325.545C98.1823 326.195 98.3842 326.829 98.76 327.36C99.5442 328.399 100.502 329.296 101.59 330.01C103.78 331.615 105.576 333.697 106.84 336.1C108.11 338.69 108.45 341.64 109.58 344.3C110.71 346.96 113.07 349.47 115.95 349.35C117.078 349.237 118.148 348.791 119.024 348.07C119.899 347.35 120.542 346.386 120.87 345.3C121.99 341.85 120.5 340.3 118.65 337.86C116.6 335.15 115.85 331.68 113.56 329.09Z" fill="url(#paint11_linear)"/>
</g>
<path id="vase" d="M135.27 345.07L131.9 376.6H128.33C125.58 375.04 122.8 373.51 120.02 371.95L111.92 367.41L109.05 345.07H135.27Z" fill="url(#paint12_linear)"/>
<g id="right-screen">
<path id="Vector_91" d="M310.34 234.25H373.51C379.596 234.25 384.53 229.316 384.53 223.23V182.08C384.53 175.994 379.596 171.06 373.51 171.06H310.34C304.254 171.06 299.32 175.994 299.32 182.08V223.23C299.32 229.316 304.254 234.25 310.34 234.25Z" fill="black" fill-opacity="0.5"/>
<path id="Vector_92" opacity="0.52" d="M330.8 187H308V188.67H330.8V187Z" fill="white"/>
<path id="Vector_93" opacity="0.52" d="M321.92 190.23H308V191.8H321.92V190.23Z" fill="white"/>
<path id="Vector_94" opacity="0.52" d="M371.32 190.23H327.53V191.81H371.32V190.23Z" fill="white"/>
<path id="Vector_95" opacity="0.52" d="M334.38 193.48H315.24V195.14H334.38V193.48Z" fill="white"/>
<path id="Vector_96" opacity="0.52" d="M344.18 196.71H321.38V198.38H344.18V196.71Z" fill="white"/>
<path id="Vector_97" opacity="0.52" d="M364.77 196.71H345.66V198.57H364.77V196.71Z" fill="white"/>
<path id="Vector_98" opacity="0.52" d="M338.95 199.95H321.34V201.52H338.95V199.95Z" fill="white"/>
<path id="Vector_99" opacity="0.52" d="M376.97 199.95H340.64V201.69H376.97V199.95Z" fill="white"/>
<path id="Vector_100" opacity="0.52" d="M330.8 204.33H308V206H330.8V204.33Z" fill="white"/>
<path id="Vector_101" opacity="0.52" d="M321.92 207.56H308V209.13H321.92V207.56Z" fill="white"/>
<path id="Vector_102" opacity="0.52" d="M371.32 207.56H327.53V209.14H371.32V207.56Z" fill="white"/>
<path id="Vector_103" opacity="0.52" d="M334.38 210.8H315.24V212.46H334.38V210.8Z" fill="white"/>
<path id="Vector_104" opacity="0.52" d="M344.18 214.04H321.38V215.71H344.18V214.04Z" fill="white"/>
<path id="Vector_105" opacity="0.52" d="M364.77 214.04H345.66V215.9H364.77V214.04Z" fill="white"/>
<path id="Vector_106" opacity="0.52" d="M338.95 217.28H321.34V218.85H338.95V217.28Z" fill="white"/>
<path id="Vector_107" opacity="0.52" d="M376.97 217.28H340.64V219.02H376.97V217.28Z" fill="white"/>
</g>
<g id="left-screen" opacity="0.52">
<path id="Vector_108" d="M63.19 239.48H139.82C145.713 239.48 150.49 234.703 150.49 228.81V214.21C150.49 208.317 145.713 203.54 139.82 203.54H63.19C57.2971 203.54 52.52 208.317 52.52 214.21V228.81C52.52 234.703 57.2971 239.48 63.19 239.48Z" fill="black" fill-opacity="0.5"/>
<g id="code_3">
<path id="Vector_109" opacity="0.52" d="M90.44 211.46H67.64V213.13H90.44V211.46Z" fill="white"/>
<path id="Vector_110" opacity="0.52" d="M81.56 214.7H67.64V216.27H81.56V214.7Z" fill="white"/>
<path id="Vector_111" opacity="0.52" d="M130.96 214.7H87.17V216.28H130.96V214.7Z" fill="white"/>
<path id="Vector_112" opacity="0.52" d="M94.02 217.94H74.88V219.6H94.02V217.94Z" fill="white"/>
<path id="Vector_113" opacity="0.52" d="M103.82 221.18H81.02V222.85H103.82V221.18Z" fill="white"/>
<path id="Vector_114" opacity="0.52" d="M124.42 221.18H105.31V223.04H124.42V221.18Z" fill="white"/>
<path id="Vector_115" opacity="0.52" d="M98.6 224.41H80.99V225.98H98.6V224.41Z" fill="white"/>
<path id="Vector_116" opacity="0.52" d="M136.61 224.41H100.28V226.15H136.61V224.41Z" fill="white"/>
<path id="Vector_117" opacity="0.52" d="M90.44 228.79H67.64V230.46H90.44V228.79Z" fill="white"/>
<path id="Vector_118" opacity="0.52" d="M81.56 232.03H67.64V233.6H81.56V232.03Z" fill="white"/>
<path id="Vector_119" opacity="0.52" d="M130.96 232.03H87.17V233.61H130.96V232.03Z" fill="white"/>
</g>
</g>
</g>
<defs>
<linearGradient id="paint0_linear" x1="117.52" y1="154.34" x2="110.48" y2="-1.42999" gradientUnits="userSpaceOnUse">
<stop stop-color="white" stop-opacity="0"/>
<stop offset="0.95" stop-color="white"/>
</linearGradient>
<linearGradient id="paint1_linear" x1="427.5" y1="109" x2="22.5" y2="297" gradientUnits="userSpaceOnUse">
<stop offset="0.137244" stop-color="#0028FB"/>
<stop offset="0.650092" stop-color="#00FF47"/>
</linearGradient>
<linearGradient id="paint2_linear" x1="197.7" y1="277.79" x2="251.82" y2="277.79" gradientUnits="userSpaceOnUse">
<stop stop-color="#010101" stop-opacity="0"/>
<stop offset="0.95" stop-color="#010101"/>
</linearGradient>
<radialGradient id="paint3_radial" cx="0" cy="0" r="1" gradientUnits="userSpaceOnUse" gradientTransform="translate(225.185 278.69) rotate(-90) scale(32.32 3.91499)">
<stop stop-color="#5F5F5F"/>
<stop offset="1" stop-color="#2E2E2E"/>
</radialGradient>
<radialGradient id="paint4_radial" cx="0" cy="0" r="1" gradientUnits="userSpaceOnUse" gradientTransform="translate(6682 6624.49) rotate(-82.9456) scale(262.229 277.68)">
<stop stop-color="#5F5F5F"/>
<stop offset="0.95" stop-color="#403F3F"/>
</radialGradient>
<radialGradient id="paint5_radial" cx="0" cy="0" r="1" gradientUnits="userSpaceOnUse" gradientTransform="translate(226.2 349.24) rotate(-90) scale(16.84 2.61)">
<stop stop-color="#5F5F5F"/>
<stop offset="1" stop-color="#2E2E2E"/>
</radialGradient>
<radialGradient id="paint6_radial" cx="0" cy="0" r="1" gradientUnits="userSpaceOnUse" gradientTransform="translate(226.012 375.704) rotate(90) scale(11.0249 33.9943)">
<stop stop-color="#5F5F5F"/>
<stop offset="1" stop-color="#2E2E2E"/>
</radialGradient>
<linearGradient id="paint7_linear" x1="25776" y1="7831.37" x2="25783.1" y2="8754.6" gradientUnits="userSpaceOnUse">
<stop stop-color="#010101" stop-opacity="0"/>
<stop offset="0.95" stop-color="#010101"/>
</linearGradient>
<radialGradient id="paint8_radial" cx="0" cy="0" r="1" gradientUnits="userSpaceOnUse" gradientTransform="translate(7828.47 4077.15) rotate(91.8463) scale(421.572 719.767)">
<stop stop-color="#5F5F5F"/>
<stop offset="0.95" stop-color="#403F3F"/>
</radialGradient>
<linearGradient id="paint9_linear" x1="118.772" y1="276.79" x2="118.772" y2="346.675" gradientUnits="userSpaceOnUse">
<stop stop-color="#2AAE57"/>
<stop offset="1" stop-color="#003D11"/>
</linearGradient>
<linearGradient id="paint10_linear" x1="136.886" y1="324.301" x2="136.886" y2="350.233" gradientUnits="userSpaceOnUse">
<stop stop-color="#2AAE57"/>
<stop offset="1" stop-color="#003D11"/>
</linearGradient>
<linearGradient id="paint11_linear" x1="109.719" y1="322.869" x2="109.719" y2="349.354" gradientUnits="userSpaceOnUse">
<stop stop-color="#2AAE57"/>
<stop offset="1" stop-color="#003D11"/>
</linearGradient>
<linearGradient id="paint12_linear" x1="122.16" y1="345.07" x2="122.16" y2="376.6" gradientUnits="userSpaceOnUse">
<stop stop-color="#634100"/>
<stop offset="1" stop-color="#201500"/>
</linearGradient>
<clipPath id="clip0">
<rect width="420.22" height="406.42" fill="white"/>
</clipPath>
</defs>
</svg>
